<svg width="128" height="128" viewBox="0 0 128 128" fill="none" xmlns="http://www.w3.org/2000/svg">
<g clip-path="url(#clip0_38_14)">
<path fill-rule="evenodd" clip-rule="evenodd" d="M8.66656 55.3334L1.90735e-06 64C1.90735e-06 28.6538 28.6538 1.90735e-06 64 -1.29682e-06L55.3334 8.66656C31.3454 12.3933 12.3933 31.3454 8.66656 55.3334ZM8.66656 72.6666L1.90735e-06 64C1.90735e-06 99.3462 28.6538 128 64 128C99.3462 128 128 99.3462 128 64C128 28.6538 99.3462 1.90735e-06 64 -1.29682e-06L72.6666 8.66656C96.6546 12.3933 115.607 31.3454 119.333 55.3334L128 64L119.333 72.6666C115.607 96.6546 96.6546 115.607 72.6666 119.333L64 128L55.3334 119.333C31.3454 115.607 12.3933 96.6546 8.66656 72.6666Z" fill="#1C7ED6"/>
<path fill-rule="evenodd" clip-rule="evenodd" d="M105.584 78.4159C107.15 73.8995 108 69.0491 108 64C108 58.9509 107.15 54.1005 105.584 49.5841L120 64L105.584 78.4159ZM78.4159 105.584C73.8995 107.15 69.0491 108 64 108C58.9509 108 54.1005 107.15 49.5841 105.584L64 120L78.4159 105.584ZM22.4159 78.4159C20.8504 73.8995 20 69.0491 20 64C20 58.9509 20.8504 54.1005 22.4159 49.5841L8 64L22.4159 78.4159ZM49.5841 22.4159L64 8L78.4159 22.4159C73.8995 20.8505 69.0491 20 64 20C58.9509 20 54.1005 20.8505 49.5841 22.4159Z" fill="#1C7ED6"/>
<path d="M41.7071 86.9619L43.1213 85.5477L41.7071 84.1335L40.2929 85.5477L41.7071 86.9619ZM45.9497 82.7193L48.7782 79.8909L47.364 78.4767L44.5355 81.3051L45.9497 82.7193ZM51.6066 77.0624L54.435 74.234L53.0208 72.8198L50.1924 75.6482L51.6066 77.0624ZM57.2635 71.4056L60.0919 68.5772L58.6777 67.163L55.8492 69.9914L57.2635 71.4056ZM62.9203 65.7487L65.7487 62.9203L64.3345 61.5061L61.5061 64.3345L62.9203 65.7487ZM68.5772 60.0919L71.4056 57.2635L69.9914 55.8492L67.163 58.6777L68.5772 60.0919ZM74.234 54.435L77.0624 51.6066L75.6482 50.1924L72.8198 53.0208L74.234 54.435ZM79.8909 48.7782L82.7193 45.9498L81.3051 44.5355L78.4767 47.364L79.8909 48.7782ZM85.5477 43.1213L86.9619 41.7071L85.5477 40.2929L84.1335 41.7071L85.5477 43.1213Z" fill="#1C7ED6"/>
<path d="M80 67C73.2712 67 68 70.075 68 74V86C68 89.925 73.2712 93 80 93C86.7288 93 92 89.925 92 86V74C92 70.075 86.7288 67 80 67ZM90 80C90 81.2025 89.015 82.4287 87.2987 83.365C85.3662 84.4187 82.7738 85 80 85C77.2262 85 74.6338 84.4187 72.7013 83.365C70.985 82.4287 70 81.2025 70 80V77.92C72.1325 79.795 75.7787 81 80 81C84.2213 81 87.8675 79.79 90 77.92V80ZM72.7013 70.635C74.6338 69.5813 77.2262 69 80 69C82.7738 69 85.3662 69.5813 87.2987 70.635C89.015 71.5713 90 72.7975 90 74C90 75.2025 89.015 76.4287 87.2987 77.365C85.3662 78.4187 82.7738 79 80 79C77.2262 79 74.6338 78.4187 72.7013 77.365C70.985 76.4287 70 75.2025 70 74C70 72.7975 70.985 71.5713 72.7013 70.635ZM87.2987 89.365C85.3662 90.4187 82.7738 91 80 91C77.2262 91 74.6338 90.4187 72.7013 89.365C70.985 88.4287 70 87.2025 70 86V83.92C72.1325 85.795 75.7787 87 80 87C84.2213 87 87.8675 85.79 90 83.92V86C90 87.2025 89.015 88.4287 87.2987 89.365Z" fill="#1C7ED6"/>
<path d="M48 35C45.4288 35 42.9154 35.7624 40.7776 37.1909C38.6397 38.6194 36.9735 40.6497 35.9896 43.0251C35.0056 45.4006 34.7482 48.0144 35.2498 50.5362C35.7514 53.0579 36.9895 55.3743 38.8076 57.1924C40.6257 59.0105 42.9421 60.2486 45.4638 60.7502C47.9856 61.2518 50.5994 60.9944 52.9749 60.0104C55.3503 59.0265 57.3806 57.3603 58.8091 55.2224C60.2376 53.0846 61 50.5712 61 48C60.996 44.5534 59.6251 41.2491 57.188 38.812C54.7509 36.3749 51.4466 35.004 48 35ZM59 48C59.0009 49.0145 58.8608 50.0241 58.5837 51H53.77C54.0767 49.0118 54.0767 46.9882 53.77 45H58.5837C58.8608 45.9759 59.0009 46.9855 59 48ZM44.75 53H51.25C50.6096 55.0982 49.498 57.0223 48 58.625C46.5026 57.0218 45.391 55.098 44.75 53ZM44.2625 51C43.9192 49.0147 43.9192 46.9853 44.2625 45H51.7475C52.0908 46.9853 52.0908 49.0147 51.7475 51H44.2625ZM37 48C36.9991 46.9855 37.1392 45.9759 37.4162 45H42.23C41.9233 46.9882 41.9233 49.0118 42.23 51H37.4162C37.1392 50.0241 36.9991 49.0145 37 48ZM51.25 43H44.75C45.3904 40.9018 46.502 38.9777 48 37.375C49.4974 38.9782 50.609 40.902 51.25 43ZM57.7912 43H53.3387C52.7776 40.9411 51.8318 39.0071 50.5512 37.3C52.0984 37.6717 53.5469 38.3735 54.7974 39.3573C56.0479 40.3412 57.0709 41.5838 57.7962 43H57.7912ZM45.4487 37.3C44.1682 39.0071 43.2224 40.9411 42.6612 43H38.2037C38.9291 41.5838 39.9521 40.3412 41.2026 39.3573C42.4531 38.3735 43.9016 37.6717 45.4487 37.3ZM38.2037 53H42.6612C43.2224 55.0589 44.1682 56.9929 45.4487 58.7C43.9016 58.3283 42.4531 57.6265 41.2026 56.6427C39.9521 55.6588 38.9291 54.4162 38.2037 53ZM50.5512 58.7C51.8318 56.9929 52.7776 55.0589 53.3387 53H57.7962C57.0709 54.4162 56.0479 55.6588 54.7974 56.6427C53.5469 57.6265 52.0984 58.3283 50.5512 58.7Z" fill="#1C7ED6"/>
</g>
<defs>
<clipPath id="clip0_38_14">
<rect width="128" height="128" fill="white"/>
</clipPath>
</defs>
</svg>
